<svg width="24" height="24" viewBox="0 0 24 24" fill="none" xmlns="http://www.w3.org/2000/svg">
<path d="M16.6234 2.00416L14.2249 2C11.5302 2 9.78878 3.9319 9.78878 6.92203V9.19141H7.37715C7.16875 9.19141 7 9.37409 7 9.59943V12.8875C7 13.1128 7.16895 13.2953 7.37715 13.2953H9.78878V21.5922C9.78878 21.8175 9.95753 22 10.1659 22H13.3124C13.5208 22 13.6896 21.8173 13.6896 21.5922V13.2953H16.5093C16.7177 13.2953 16.8865 13.1128 16.8865 12.8875L16.8876 9.59943C16.8876 9.49123 16.8478 9.38762 16.7772 9.31105C16.7066 9.23448 16.6103 9.19141 16.5103 9.19141H13.6896V7.26763C13.6896 6.34298 13.8933 5.87358 15.0073 5.87358L16.623 5.87295C16.8312 5.87295 17 5.69027 17 5.46514V2.41197C17 2.18705 16.8314 2.00458 16.6234 2.00416Z" fill="currentColor"/>
</svg>
