<svg width="24" height="24" viewBox="0 0 24 24" fill="currentColor" xmlns="http://www.w3.org/2000/svg">
<path d="M12.206 10.5677H21.8405C21.9468 11.1493 22 11.7049 22 12.2344C22 14.1181 21.5969 15.7999 20.7907 17.2799C19.9845 18.76 18.835 19.9167 17.3422 20.75C15.8494 21.5833 14.1373 22 12.206 22C10.8151 22 9.49059 21.7374 8.23256 21.2122C6.97453 20.6871 5.88926 19.9774 4.97674 19.0833C4.06423 18.1892 3.33998 17.1259 2.80399 15.8932C2.268 14.6606 2 13.3628 2 12C2 10.6372 2.268 9.33941 2.80399 8.10677C3.33998 6.87413 4.06423 5.81076 4.97674 4.91667C5.88926 4.02257 6.97453 3.31293 8.23256 2.78776C9.49059 2.26259 10.8151 2 12.206 2C14.8638 2 17.1451 2.8724 19.0498 4.61719L16.2724 7.23438C15.1827 6.20139 13.8272 5.6849 12.206 5.6849C11.0631 5.6849 10.0066 5.96701 9.03654 6.53125C8.06644 7.09549 7.2979 7.86155 6.7309 8.82943C6.1639 9.79731 5.8804 10.8542 5.8804 12C5.8804 13.1458 6.1639 14.2027 6.7309 15.1706C7.2979 16.1385 8.06644 16.9045 9.03654 17.4688C10.0066 18.033 11.0631 18.3151 12.206 18.3151C12.9767 18.3151 13.6855 18.2109 14.3322 18.0026C14.979 17.7943 15.5105 17.5339 15.9269 17.2214C16.3433 16.9089 16.7065 16.553 17.0166 16.1536C17.3267 15.7543 17.5548 15.3767 17.701 15.0208C17.8472 14.6649 17.9468 14.3264 18 14.0052H12.206V10.5677Z" fill="currentColor"/>
</svg>
