<?xml version="1.0" encoding="utf-8"?>
<!-- Generator: Adobe Illustrator 25.2.0, SVG Export Plug-In . SVG Version: 6.00 Build 0)  -->
<svg version="1.1" id="Layer_1" xmlns="http://www.w3.org/2000/svg" xmlns:xlink="http://www.w3.org/1999/xlink" x="0px" y="0px"
	 viewBox="0 0 51.7 52" style="enable-background:new 0 0 51.7 52;" xml:space="preserve">
<style type="text/css">
	.st0{fill:#E9672B;}
	.st1{fill-rule:evenodd;clip-rule:evenodd;fill:#FFFFFF;}
	.st2{fill:#FFFFFF;}
</style>
<ellipse class="st0" cx="25.9" cy="26" rx="25.9" ry="26"/>
<path class="st1" d="M40.7,15.6c-0.3,0-0.6,0.3-0.6,0.6v8.5l-29.1,0v-8.5c0-0.3-0.3-0.6-0.6-0.6H9c-0.3,0-0.6,0.3-0.6,0.6v8.5h0v2.6
	h0v8.5c0,0.3,0.3,0.6,0.6,0.6h1.4c0.3,0,0.6-0.3,0.6-0.6v-8.5h29.1v8.5c0,0.3,0.3,0.6,0.6,0.6h1.4c0.3,0,0.6-0.3,0.6-0.6V16.2
	c0-0.3-0.3-0.6-0.6-0.6H40.7z"/>
<ellipse class="st2" cx="25.6" cy="20.8" rx="1.7" ry="1.7"/>
<ellipse class="st2" cx="25.6" cy="31.2" rx="1.7" ry="1.7"/>
</svg>
