<svg width="24" height="24" viewBox="0 0 24 24" fill="none" xmlns="http://www.w3.org/2000/svg">
<path fill-rule="evenodd" clip-rule="evenodd" d="M20.1389 4H3.86111C2.83325 4 2 4.83325 2 5.86111C2 6.48338 2.31099 7.06447 2.82875 7.40964L10.3359 12.4144C11.3436 13.0862 12.6564 13.0862 13.6641 12.4144L21.1712 7.40964C21.689 7.06447 22 6.48338 22 5.86111C22 4.83325 21.1668 4 20.1389 4ZM2.47619 10.8095C2.47619 10.6131 2.49508 10.421 2.53113 10.2351C2.63968 9.67532 3.30139 9.52747 3.77581 9.84375L9.50384 13.6624C11.0154 14.6701 12.9846 14.6701 14.4961 13.6624L20.2242 9.84374C20.6986 9.52746 21.3603 9.67531 21.4689 10.2351C21.5049 10.421 21.5238 10.6131 21.5238 10.8095V17.2381C21.5238 18.3427 20.6284 19.2381 19.5238 19.2381H4.47619C3.37162 19.2381 2.47619 18.3427 2.47619 17.2381V10.8095Z" fill="currentColor"/>
</svg>
