<svg width="24" height="24" viewBox="0 0 24 24" fill="none" xmlns="http://www.w3.org/2000/svg">
<path fill-rule="evenodd" clip-rule="evenodd" d="M12 22C17.5228 22 22 17.5228 22 12C22 6.47715 17.5228 2 12 2C6.47715 2 2 6.47715 2 12C2 17.5228 6.47715 22 12 22ZM11.5349 8.90211C10.915 8.97389 10.4582 9.34586 10.4582 9.93971C10.4582 10.4096 10.7584 10.7489 11.3522 10.9447C11.4109 10.9643 11.4697 10.9838 11.5349 10.9969V8.90211ZM12.5399 15.1343C13.2316 15.0755 13.7211 14.6514 13.7211 14.0118C13.7211 13.4767 13.4013 13.1178 12.6704 12.9155C12.6313 12.909 12.5856 12.8959 12.5399 12.8829V15.1343ZM12.5464 16.5438L12.553 17.3726H11.4958L11.5023 16.5569C9.34225 16.4003 8.53305 15.1277 8.52 13.9205H10.2298C10.2624 14.5208 10.6996 15.0233 11.5349 15.1343V12.7067L10.9737 12.5827C9.75991 12.3151 8.68967 11.5581 8.68967 10.0768C8.68967 8.51056 9.92958 7.64263 11.5088 7.49906V6.65723H12.566V7.50558C14.217 7.68178 15.2808 8.71286 15.3069 10.0702H13.6362C13.6167 9.54817 13.2316 9.0261 12.5399 8.91516V11.1927L13.0946 11.3101C14.4063 11.5907 15.47 12.2564 15.47 13.8356C15.47 15.3888 14.3345 16.3742 12.5464 16.5438Z" fill="#E9672B"/>
</svg>
