<svg width="24" height="24" viewBox="0 0 24 24" fill="none" xmlns="http://www.w3.org/2000/svg">
<path fill-rule="evenodd" clip-rule="evenodd" d="M9.62634 3.25633C8.56772 2.58192 7.16282 2.89337 6.48841 3.95199C5.81399 5.01061 6.12545 6.41551 7.18407 7.08993C8.24269 7.76434 11.181 8.42979 11.8554 7.37117C11.9555 7.21406 12.0001 7.0278 12.0001 6.8223C12 7.0278 12.0446 7.21406 12.1447 7.37117C12.8191 8.42979 15.7574 7.76434 16.816 7.08993C17.8747 6.41551 18.1861 5.01061 17.5117 3.95199C16.8373 2.89337 15.4324 2.58192 14.3738 3.25633C13.4723 3.83063 12.0007 5.64303 12.0001 6.82216C11.9994 5.64303 10.5278 3.83063 9.62634 3.25633ZM22 10.5707V8.9343C22 8.38201 21.5523 7.9343 21 7.9343H12.9V11.3979H21.4684C21.782 11.2546 22 10.9381 22 10.5707ZM21.0909 13.1979H12.9V21.5707H19.0909C20.1955 21.5707 21.0909 20.6752 21.0909 19.5707V13.1979ZM11.1 21.5707V13.1979H2.90909V19.5707C2.90909 20.6752 3.80452 21.5707 4.90909 21.5707H11.1ZM2.53164 11.3979C2.21796 11.2546 2 10.9381 2 10.5707V8.9343C2 8.38201 2.44772 7.9343 3 7.9343H11.1V11.3979H2.53164Z" fill="#E9672B"/>
</svg>
