<svg width="24" height="24" viewBox="0 0 24 24" fill="none" xmlns="http://www.w3.org/2000/svg">
<path d="M16.1169 15.6803L15.4983 16.6082C15.3748 16.7934 15.2115 16.9514 14.9963 17.0083C14.2914 17.1946 12.4199 17.2787 9.5706 14.4294C6.72133 11.5801 6.80542 9.70865 6.99169 9.00372C7.04855 8.78851 7.20659 8.62521 7.3918 8.50174L8.3197 7.88314C9.01054 7.42258 9.19722 6.48919 8.73666 5.79834L6.98417 3.16961C6.58217 2.56661 5.8072 2.33624 5.14108 2.62171L4.35053 2.96052C3.74997 3.2179 3.26009 3.67982 2.96789 4.26422C2.72376 4.75247 2.53455 5.26662 2.50891 5.8119C2.42812 7.53027 2.80492 11.7638 7.52055 16.4795C12.2362 21.1951 16.4697 21.5719 18.1881 21.4911C18.7334 21.4654 19.2475 21.2762 19.7358 21.0321C20.3202 20.7399 20.7821 20.25 21.0395 19.6495L21.3783 18.8589C21.6638 18.1928 21.4334 17.4178 20.8304 17.0158L18.2017 15.2633C17.5108 14.8028 16.5774 14.9895 16.1169 15.6803Z" fill="currentColor"/>
</svg>
