<svg width="62" height="44" viewBox="0 0 62 44" fill="none" xmlns="http://www.w3.org/2000/svg">
<path d="M61 33H60V25C59.9986 23.9396 59.5767 22.923 58.8269 22.1731C58.077 21.4233 57.0604 21.0014 56 21V4C55.9986 2.93956 55.5767 1.92295 54.8269 1.17311C54.077 0.423263 53.0604 0.00138909 52 0H10C8.93956 0.00138909 7.92295 0.423263 7.17311 1.17311C6.42326 1.92295 6.00139 2.93956 6 4V21C4.93956 21.0014 3.92295 21.4233 3.17311 22.1731C2.42326 22.923 2.00139 23.9396 2 25V33H1C0.734784 33 0.48043 33.1054 0.292893 33.2929C0.105357 33.4804 0 33.7348 0 34V38C0 38.2652 0.105357 38.5196 0.292893 38.7071C0.48043 38.8946 0.734784 39 1 39H2V43C2 43.2652 2.10536 43.5196 2.29289 43.7071C2.48043 43.8946 2.73478 44 3 44H6C6.23112 44.0001 6.45512 43.9201 6.63383 43.7735C6.81253 43.6269 6.93488 43.4229 6.98 43.1963L7.82 39H54.18L55.02 43.1963C55.0651 43.4229 55.1875 43.6269 55.3662 43.7735C55.5449 43.9201 55.7689 44.0001 56 44H59C59.2652 44 59.5196 43.8946 59.7071 43.7071C59.8946 43.5196 60 43.2652 60 43V39H61C61.2652 39 61.5196 38.8946 61.7071 38.7071C61.8946 38.5196 62 38.2652 62 38V34C62 33.7348 61.8946 33.4804 61.7071 33.2929C61.5196 33.1054 61.2652 33 61 33ZM8 4C8.00069 3.46978 8.21163 2.96148 8.58655 2.58655C8.96148 2.21163 9.46978 2.00069 10 2H52C52.5302 2.00069 53.0385 2.21163 53.4134 2.58655C53.7884 2.96148 53.9993 3.46978 54 4V21H52V17C51.9986 15.9396 51.5767 14.923 50.8269 14.1731C50.077 13.4233 49.0604 13.0014 48 13H36C34.9396 13.0014 33.923 13.4233 33.1731 14.1731C32.4233 14.923 32.0014 15.9396 32 17V21H30V17C29.9986 15.9396 29.5767 14.923 28.8269 14.1731C28.077 13.4233 27.0604 13.0014 26 13H14C12.9396 13.0014 11.923 13.4233 11.1731 14.1731C10.4233 14.923 10.0014 15.9396 10 17V21H8V4ZM50 17V21H34V17C34.0007 16.4698 34.2116 15.9615 34.5866 15.5866C34.9615 15.2116 35.4698 15.0007 36 15H48C48.5302 15.0007 49.0385 15.2116 49.4134 15.5866C49.7884 15.9615 49.9993 16.4698 50 17ZM28 17V21H12V17C12.0007 16.4698 12.2116 15.9615 12.5866 15.5866C12.9615 15.2116 13.4698 15.0007 14 15H26C26.5302 15.0007 27.0385 15.2116 27.4134 15.5866C27.7884 15.9615 27.9993 16.4698 28 17ZM4 25C4.00069 24.4698 4.21163 23.9615 4.58655 23.5866C4.96148 23.2116 5.46978 23.0007 6 23H56C56.5302 23.0007 57.0385 23.2116 57.4134 23.5866C57.7884 23.9615 57.9993 24.4698 58 25V33H4V25ZM5.18 42H4V39H5.78L5.18 42ZM58 42H56.82L56.22 39H58V42ZM60 37H2V35H60V37Z" fill="#E9672B"/>
</svg>
