<svg width="24" height="24" viewBox="0 0 24 24" fill="none" xmlns="http://www.w3.org/2000/svg">
<path d="M2 3H3.5817C4.05988 3 4.29897 3 4.49338 3.08668C4.66475 3.1631 4.81117 3.2862 4.9159 3.4419C5.03469 3.61852 5.07576 3.85406 5.15791 4.32513L5.52068 6.40541M5.52068 6.40541L6.36881 11.269C6.54834 12.2985 6.6381 12.8132 6.90339 13.1841C7.13699 13.5106 7.46345 13.7593 7.84031 13.8978C8.26831 14.055 8.78842 14.0048 9.82864 13.9044L19.1917 13.0008C20.1332 12.9099 20.604 12.8645 20.9663 12.6646C21.3542 12.4505 21.66 12.1137 21.8358 11.707C22 11.3272 22 10.8543 22 9.90833V9.90833C22 8.90322 22 8.40066 21.8209 8.00639C21.6291 7.58443 21.2968 7.24216 20.8807 7.03807C20.4919 6.84737 19.9895 6.83254 18.9849 6.80288L5.52068 6.40541Z" stroke="currentColor" stroke-width="1.8" stroke-linecap="round" stroke-linejoin="round"/>
<ellipse cx="9.31706" cy="19.0541" rx="1.95122" ry="1.94595" stroke="currentColor" stroke-width="1.8"/>
<ellipse cx="18.5854" cy="19.0541" rx="1.95122" ry="1.94595" stroke="currentColor" stroke-width="1.8"/>
</svg>
