<svg width="18" height="24" viewBox="0 0 18 24" fill="none" xmlns="http://www.w3.org/2000/svg">
<path d="M3.60993 21.8312C2.51258 20.5794 1.41528 19.2776 0.716941 17.7253C0.0186543 16.073 -0.180876 14.1703 0.16829 12.3677C0.517457 10.5651 1.31549 8.86266 2.46273 7.4106C2.36299 8.66241 2.8119 9.96425 3.65982 10.9156C3.16102 8.51219 3.95909 5.90846 5.5552 4.00575C7.1513 2.10305 9.346 0.8512 11.6404 0C10.4932 1.20172 10.3436 3.10442 10.7925 4.70674C11.2414 6.30901 12.1891 7.71103 13.037 9.16309C13.8849 10.6151 14.683 12.1173 14.7329 13.7697C15.1818 12.9185 15.6806 12.0672 15.9799 11.1159C16.2792 10.1645 16.4288 9.16309 16.1794 8.21172C17.0772 9.3133 17.576 10.4148 17.8254 11.8169C18.0748 13.2189 18.025 14.6709 17.8753 16.073C17.6758 17.6252 17.2768 19.2275 16.4288 20.5293C15.4313 22.0815 13.8351 23.1831 12.0894 23.7839C8.99683 24.3348 5.95421 23.8841 3.60993 21.8312Z" fill="#C81809"/>
<path d="M7.40093 23.6838C11.491 25.2861 15.5311 20.4292 13.2866 16.6738C13.2866 16.6237 13.2367 16.6237 13.2367 16.5737C13.4362 18.6266 12.9374 20.1287 11.9897 20.98C12.4885 19.7783 12.1394 18.3762 11.5408 17.1745C10.9423 16.0229 10.0943 14.9714 9.4459 13.8698C8.79746 12.7182 8.29871 11.4163 8.59798 10.1144C7.40089 11.0157 6.55296 12.3677 6.2038 13.8197C5.85463 15.2718 6.05416 16.8741 6.7026 18.226C5.95442 17.6753 5.40577 16.774 5.35587 15.8226C4.5578 16.774 4.05904 18.0257 4.10889 19.2775C4.10894 21.2303 5.65515 22.9828 7.40093 23.6838Z" fill="#FDCB4B"/>
</svg>
