<svg width="123" height="52" viewBox="0 0 123 52" fill="none" xmlns="http://www.w3.org/2000/svg">
<path d="M57.3105 25.5214C57.3105 22.4864 58.4172 19.8796 60.6304 17.7011C62.8345 15.5226 65.483 14.4333 68.576 14.4333C71.6319 14.4333 74.2527 15.5319 76.4382 17.729C78.6329 19.9262 79.7303 22.5655 79.7303 25.6471C79.7303 28.7473 78.6283 31.3773 76.4243 33.5372C74.211 35.7064 71.5393 36.791 68.4093 36.791C65.6404 36.791 63.1539 35.8275 60.9499 33.9003C58.5237 31.7684 57.3105 28.9754 57.3105 25.5214ZM60.5749 25.5633C60.5749 27.9466 61.3713 29.9064 62.9641 31.4425C64.5476 32.9786 66.3766 33.7467 68.451 33.7467C70.7013 33.7467 72.5997 32.9647 74.1462 31.4006C75.6927 29.8179 76.4659 27.8908 76.4659 25.6192C76.4659 23.3196 75.702 21.3925 74.174 19.8377C72.6552 18.2737 70.7754 17.4916 68.5343 17.4916C66.3025 17.4916 64.418 18.2737 62.8808 19.8377C61.3435 21.3832 60.5749 23.2917 60.5749 25.5633Z" fill="#1D1F1F"/>
<path d="M83.0502 36.4L87.5647 13.2184L94.9268 29.9762L102.553 13.2184L106.609 36.4H103.289L101.219 23.3848L94.8712 37.3915L88.7037 23.3708L86.3979 36.4H83.0502Z" fill="#1D1F1F"/>
<path d="M123 17.8966H114.402V23.0776H122.75V26.1359H114.402V33.3417H123V36.4H111.165V14.8383H123V17.8966Z" fill="#1D1F1F"/>
<ellipse cx="25.8621" cy="26" rx="25.8621" ry="26" fill="#E9672B"/>
<path fill-rule="evenodd" clip-rule="evenodd" d="M40.6646 15.6C40.3456 15.6 40.0869 15.8587 40.0869 16.1778V24.7L10.9917 24.6999V16.1778C10.9917 15.8587 10.733 15.6 10.4139 15.6H8.98325C8.66415 15.6 8.40547 15.8587 8.40547 16.1778V24.6999H8.40521V27.3H8.40547V35.8223C8.40547 36.1414 8.66415 36.4 8.98325 36.4H10.4139C10.733 36.4 10.9917 36.1414 10.9917 35.8223V27.3L40.0869 27.3V35.8222C40.0869 36.1413 40.3456 36.4 40.6646 36.4H42.0953C42.4144 36.4 42.6731 36.1413 42.6731 35.8222V16.1778C42.6731 15.8587 42.4144 15.6 42.0953 15.6H40.6646Z" fill="white"/>
<ellipse cx="25.6473" cy="20.8" rx="1.72414" ry="1.73333" fill="white"/>
<ellipse cx="25.6473" cy="31.2" rx="1.72414" ry="1.73333" fill="white"/>
</svg>
