<?xml version="1.0" encoding="utf-8"?>
<!-- Generator: Adobe Illustrator 25.2.0, SVG Export Plug-In . SVG Version: 6.00 Build 0)  -->
<svg version="1.1" id="Layer_1" xmlns="http://www.w3.org/2000/svg" xmlns:xlink="http://www.w3.org/1999/xlink" x="0px" y="0px"
	 viewBox="0 0 123 52" style="enable-background:new 0 0 123 52;" xml:space="preserve">
<style type="text/css">
	.st0{fill:#FFFFFF;}
	.st1{fill:#E9672B;}
	.st2{fill-rule:evenodd;clip-rule:evenodd;fill:#FFFFFF;}
</style>
<path class="st0" d="M57.3,25.5c0-3,1.1-5.6,3.3-7.8s4.9-3.3,7.9-3.3c3.1,0,5.7,1.1,7.9,3.3c2.2,2.2,3.3,4.8,3.3,7.9
	s-1.1,5.7-3.3,7.9c-2.2,2.2-4.9,3.3-8,3.3c-2.8,0-5.3-1-7.5-2.9C58.5,31.8,57.3,29,57.3,25.5z M60.6,25.6c0,2.4,0.8,4.3,2.4,5.9
	c1.6,1.5,3.4,2.3,5.5,2.3c2.3,0,4.1-0.8,5.7-2.3c1.5-1.6,2.3-3.5,2.3-5.8s-0.8-4.2-2.3-5.8c-1.5-1.6-3.4-2.3-5.6-2.3
	s-4.1,0.8-5.7,2.3C61.3,21.4,60.6,23.3,60.6,25.6z"/>
<path class="st0" d="M83.1,36.4l4.5-23.2L94.9,30l7.6-16.8l4.1,23.2h-3.3l-2.1-13l-6.3,14l-6.2-14l-2.3,13H83.1z"/>
<path class="st0" d="M123,17.9h-8.6v5.2h8.3v3.1h-8.3v7.2h8.6v3.1h-11.8V14.8H123V17.9z"/>
<ellipse class="st1" cx="25.9" cy="26" rx="25.9" ry="26"/>
<path class="st2" d="M40.7,15.6c-0.3,0-0.6,0.3-0.6,0.6v8.5H11v-8.5c0-0.3-0.3-0.6-0.6-0.6H9c-0.3,0-0.6,0.3-0.6,0.6v8.5l0,0v2.6
	l0,0v8.5c0,0.3,0.3,0.6,0.6,0.6h1.4c0.3,0,0.6-0.3,0.6-0.6v-8.5h29.1v8.5c0,0.3,0.3,0.6,0.6,0.6h1.4c0.3,0,0.6-0.3,0.6-0.6V16.2
	c0-0.3-0.3-0.6-0.6-0.6H40.7z"/>
<ellipse class="st0" cx="25.6" cy="20.8" rx="1.7" ry="1.7"/>
<ellipse class="st0" cx="25.6" cy="31.2" rx="1.7" ry="1.7"/>
</svg>
