<svg width="62" height="56" viewBox="0 0 62 56" fill="none" xmlns="http://www.w3.org/2000/svg">
<path d="M61 22H58V9C58 8.73478 57.8946 8.48043 57.7071 8.29289C57.5196 8.10536 57.2652 8 57 8H45C44.7348 8 44.4804 8.10536 44.2929 8.29289C44.1054 8.48043 44 8.73478 44 9V22H25.7812L25.2812 20H32.5C33.4279 19.999 34.3176 19.6299 34.9737 18.9737C35.6299 18.3176 35.999 17.4279 36 16.5V3.5C35.999 2.57206 35.6299 1.68241 34.9737 1.02626C34.3176 0.370104 33.4279 0.00102566 32.5 0H7.5C6.57206 0.00102566 5.68241 0.370104 5.02626 1.02626C4.3701 1.68241 4.00103 2.57206 4 3.5V16.5C4.00103 17.4279 4.3701 18.3176 5.02626 18.9737C5.68241 19.6299 6.57206 19.999 7.5 20H14.7188L14.2188 22H1C0.734784 22 0.48043 22.1054 0.292893 22.2929C0.105357 22.4804 0 22.7348 0 23V55C0 55.2652 0.105357 55.5196 0.292893 55.7071C0.48043 55.8946 0.734784 56 1 56H4C4.26522 56 4.51957 55.8946 4.70711 55.7071C4.89464 55.5196 5 55.2652 5 55V36H36V55C36 55.2652 36.1054 55.5196 36.2929 55.7071C36.4804 55.8946 36.7348 56 37 56H40C40.2652 56 40.5196 55.8946 40.7071 55.7071C40.8946 55.5196 41 55.2652 41 55V52H57V55C57 55.2652 57.1054 55.5196 57.2929 55.7071C57.4804 55.8946 57.7348 56 58 56H61C61.2652 56 61.5196 55.8946 61.7071 55.7071C61.8946 55.5196 62 55.2652 62 55V23C62 22.7348 61.8946 22.4804 61.7071 22.2929C61.5196 22.1054 61.2652 22 61 22ZM52 10H56V22H52V10ZM46 10H50V22H46V10ZM6 3.5C6.00033 3.10228 6.15847 2.72094 6.43971 2.43971C6.72094 2.15847 7.10228 2.00033 7.5 2H32.5C32.8977 2.00033 33.2791 2.15847 33.5603 2.43971C33.8415 2.72094 33.9997 3.10228 34 3.5V15H6V3.5ZM7.5 18C7.19016 17.9994 6.8881 17.903 6.63521 17.7239C6.38233 17.5449 6.19102 17.292 6.0875 17H33.9125C33.809 17.292 33.6177 17.5449 33.3648 17.7239C33.1119 17.903 32.8098 17.9994 32.5 18H7.5ZM23.7188 22H16.2812L16.7812 20H23.2188L23.7188 22ZM3 54H2V28H3V54ZM36 34H5V28H36V34ZM39 54H38V28H39V54ZM57 50H41V44H57V50ZM57 42H41V36H57V42ZM57 34H41V28H57V34ZM60 54H59V28H60V54ZM60 26H2V24H60V26Z" fill="#E9672B"/>
<path d="M46 32H52C52.2652 32 52.5196 31.8946 52.7071 31.7071C52.8946 31.5196 53 31.2652 53 31C53 30.7348 52.8946 30.4804 52.7071 30.2929C52.5196 30.1054 52.2652 30 52 30H46C45.7348 30 45.4804 30.1054 45.2929 30.2929C45.1054 30.4804 45 30.7348 45 31C45 31.2652 45.1054 31.5196 45.2929 31.7071C45.4804 31.8946 45.7348 32 46 32Z" fill="#E9672B"/>
<path d="M52 38H46C45.7348 38 45.4804 38.1054 45.2929 38.2929C45.1054 38.4804 45 38.7348 45 39C45 39.2652 45.1054 39.5196 45.2929 39.7071C45.4804 39.8946 45.7348 40 46 40H52C52.2652 40 52.5196 39.8946 52.7071 39.7071C52.8946 39.5196 53 39.2652 53 39C53 38.7348 52.8946 38.4804 52.7071 38.2929C52.5196 38.1054 52.2652 38 52 38Z" fill="#E9672B"/>
<path d="M52 46H46C45.7348 46 45.4804 46.1054 45.2929 46.2929C45.1054 46.4804 45 46.7348 45 47C45 47.2652 45.1054 47.5196 45.2929 47.7071C45.4804 47.8946 45.7348 48 46 48H52C52.2652 48 52.5196 47.8946 52.7071 47.7071C52.8946 47.5196 53 47.2652 53 47C53 46.7348 52.8946 46.4804 52.7071 46.2929C52.5196 46.1054 52.2652 46 52 46Z" fill="#E9672B"/>
<path d="M23 30H17C16.7348 30 16.4804 30.1054 16.2929 30.2929C16.1054 30.4804 16 30.7348 16 31C16 31.2652 16.1054 31.5196 16.2929 31.7071C16.4804 31.8946 16.7348 32 17 32H23C23.2652 32 23.5196 31.8946 23.7071 31.7071C23.8946 31.5196 24 31.2652 24 31C24 30.7348 23.8946 30.4804 23.7071 30.2929C23.5196 30.1054 23.2652 30 23 30Z" fill="#E9672B"/>
</svg>
