<svg width="58" height="62" viewBox="0 0 58 62" fill="none" xmlns="http://www.w3.org/2000/svg">
<path d="M57 0H1C0.734784 0 0.48043 0.105357 0.292893 0.292893C0.105357 0.48043 0 0.734784 0 1V5C0 5.26522 0.105357 5.51957 0.292893 5.70711C0.48043 5.89464 0.734784 6 1 6V58C1 58.2652 1.10536 58.5196 1.29289 58.7071C1.48043 58.8946 1.73478 59 2 59H3V61C3 61.2652 3.10536 61.5196 3.29289 61.7071C3.48043 61.8946 3.73478 62 4 62H7C7.20989 62 7.41447 61.934 7.58474 61.8113C7.75502 61.6886 7.88237 61.5154 7.94875 61.3162L8.72125 59H50.2788L51.0513 61.3162C51.1176 61.5154 51.245 61.6886 51.4153 61.8113C51.5855 61.934 51.7901 62 52 62H55C55.2652 62 55.5196 61.8946 55.7071 61.7071C55.8946 61.5196 56 61.2652 56 61V59C56.2652 59 56.5196 58.8946 56.7071 58.7071C56.8946 58.5196 57 58.2652 57 58V6C57.2652 6 57.5196 5.89464 57.7071 5.70711C57.8946 5.51957 58 5.26522 58 5V1C58 0.734784 57.8946 0.48043 57.7071 0.292893C57.5196 0.105357 57.2652 0 57 0ZM6.27875 60H5V59H6.6125L6.27875 60ZM54 60H52.7212L52.3875 59H54V60ZM55 57H3V6H55V57ZM56 4H2V2H56V4Z" fill="#E9672B"/>
<path d="M5 56H28C28.2652 56 28.5196 55.8946 28.7071 55.7071C28.8946 55.5196 29 55.2652 29 55V8C29 7.73478 28.8946 7.48043 28.7071 7.29289C28.5196 7.10536 28.2652 7 28 7H5C4.73478 7 4.48043 7.10536 4.29289 7.29289C4.10536 7.48043 4 7.73478 4 8V55C4 55.2652 4.10536 55.5196 4.29289 55.7071C4.48043 55.8946 4.73478 56 5 56ZM6 9H27V54H6V9Z" fill="#E9672B"/>
<path d="M25 27C24.7348 27 24.4804 27.1054 24.2929 27.2929C24.1054 27.4804 24 27.7348 24 28V34C24 34.2652 24.1054 34.5196 24.2929 34.7071C24.4804 34.8946 24.7348 35 25 35C25.2652 35 25.5196 34.8946 25.7071 34.7071C25.8946 34.5196 26 34.2652 26 34V28C26 27.7348 25.8946 27.4804 25.7071 27.2929C25.5196 27.1054 25.2652 27 25 27Z" fill="#E9672B"/>
<path d="M31 56H53C53.2652 56 53.5196 55.8946 53.7071 55.7071C53.8946 55.5196 54 55.2652 54 55V47C54 46.7348 53.8946 46.4804 53.7071 46.2929C53.5196 46.1054 53.2652 46 53 46H31C30.7348 46 30.4804 46.1054 30.2929 46.2929C30.1054 46.4804 30 46.7348 30 47V55C30 55.2652 30.1054 55.5196 30.2929 55.7071C30.4804 55.8946 30.7348 56 31 56ZM32 48H52V54H32V48Z" fill="#E9672B"/>
<path d="M44 49H40C39.7348 49 39.4804 49.1054 39.2929 49.2929C39.1054 49.4804 39 49.7348 39 50C39 50.2652 39.1054 50.5196 39.2929 50.7071C39.4804 50.8946 39.7348 51 40 51H44C44.2652 51 44.5196 50.8946 44.7071 50.7071C44.8946 50.5196 45 50.2652 45 50C45 49.7348 44.8946 49.4804 44.7071 49.2929C44.5196 49.1054 44.2652 49 44 49Z" fill="#E9672B"/>
<path d="M31 45H53C53.2652 45 53.5196 44.8946 53.7071 44.7071C53.8946 44.5196 54 44.2652 54 44V36C54 35.7348 53.8946 35.4804 53.7071 35.2929C53.5196 35.1054 53.2652 35 53 35H31C30.7348 35 30.4804 35.1054 30.2929 35.2929C30.1054 35.4804 30 35.7348 30 36V44C30 44.2652 30.1054 44.5196 30.2929 44.7071C30.4804 44.8946 30.7348 45 31 45ZM32 37H52V43H32V37Z" fill="#E9672B"/>
<path d="M44 38H40C39.7348 38 39.4804 38.1054 39.2929 38.2929C39.1054 38.4804 39 38.7348 39 39C39 39.2652 39.1054 39.5196 39.2929 39.7071C39.4804 39.8946 39.7348 40 40 40H44C44.2652 40 44.5196 39.8946 44.7071 39.7071C44.8946 39.5196 45 39.2652 45 39C45 38.7348 44.8946 38.4804 44.7071 38.2929C44.5196 38.1054 44.2652 38 44 38Z" fill="#E9672B"/>
<path d="M31 34H53C53.2652 34 53.5196 33.8946 53.7071 33.7071C53.8946 33.5196 54 33.2652 54 33V8C54 7.73478 53.8946 7.48043 53.7071 7.29289C53.5196 7.10536 53.2652 7 53 7H31C30.7348 7 30.4804 7.10536 30.2929 7.29289C30.1054 7.48043 30 7.73478 30 8V33C30 33.2652 30.1054 33.5196 30.2929 33.7071C30.4804 33.8946 30.7348 34 31 34ZM32 9H52V32H32V9Z" fill="#E9672B"/>
<path d="M46.207 16.7929C46.1142 16.7 46.0039 16.6263 45.8826 16.5761C45.7613 16.5258 45.6312 16.4999 45.4999 16.4999C45.3686 16.4999 45.2385 16.5258 45.1172 16.5761C44.9959 16.6263 44.8856 16.7 44.7928 16.7929L35.7928 25.7929C35.6999 25.8857 35.6263 25.996 35.576 26.1173C35.5257 26.2386 35.4999 26.3686 35.4999 26.5C35.4999 26.6313 35.5257 26.7613 35.576 26.8827C35.6263 27.004 35.6999 27.1142 35.7928 27.2071C35.8856 27.3 35.9959 27.3736 36.1172 27.4239C36.2385 27.4741 36.3686 27.5 36.4999 27.5C36.6312 27.5 36.7613 27.4741 36.8826 27.4239C37.0039 27.3736 37.1142 27.3 37.207 27.2071L46.207 18.2071C46.2999 18.1142 46.3736 18.004 46.4238 17.8827C46.4741 17.7613 46.4999 17.6313 46.4999 17.5C46.4999 17.3686 46.4741 17.2386 46.4238 17.1173C46.3736 16.996 46.2999 16.8857 46.207 16.7929Z" fill="#E9672B"/>
<path d="M37.5001 22C37.6314 22.0002 37.7615 21.9744 37.8829 21.9242C38.0042 21.8739 38.1145 21.8002 38.2072 21.7072L43.2072 16.7072C43.3948 16.5196 43.5001 16.2652 43.5001 16C43.5001 15.7348 43.3948 15.4804 43.2072 15.2929C43.0197 15.1054 42.7653 15 42.5001 15C42.2349 15 41.9805 15.1054 41.793 15.2929L36.793 20.2929C36.6531 20.4328 36.5579 20.6109 36.5193 20.8049C36.4807 20.9989 36.5005 21.2 36.5762 21.3827C36.6519 21.5654 36.7801 21.7216 36.9445 21.8315C37.109 21.9414 37.3023 22 37.5001 22Z" fill="#E9672B"/>
<path d="M45.2928 21.2929L41.2928 25.2929C41.1052 25.4804 40.9999 25.7348 40.9999 26C40.9999 26.2652 41.1052 26.5196 41.2928 26.7071C41.4803 26.8947 41.7347 27 41.9999 27C42.2651 27 42.5195 26.8947 42.707 26.7071L46.707 22.7071C46.8946 22.5196 46.9999 22.2652 46.9999 22C46.9999 21.7348 46.8946 21.4804 46.707 21.2929C46.5195 21.1054 46.2651 21 45.9999 21C45.7347 21 45.4803 21.1054 45.2928 21.2929Z" fill="#E9672B"/>
</svg>
