<svg width="62" height="52" viewBox="0 0 62 52" fill="none" xmlns="http://www.w3.org/2000/svg">
<path d="M61 26H11V24C11 23.7348 10.8946 23.4804 10.7071 23.2929C10.5196 23.1054 10.2652 23 10 23H9V20H11V21C11 21.2652 11.1054 21.5196 11.2929 21.7071C11.4804 21.8946 11.7348 22 12 22C12.2652 22 12.5196 21.8946 12.7071 21.7071C12.8946 21.5196 13 21.2652 13 21V17C13 16.7348 12.8946 16.4804 12.7071 16.2929C12.5196 16.1054 12.2652 16 12 16C11.7348 16 11.4804 16.1054 11.2929 16.2929C11.1054 16.4804 11 16.7348 11 17V18H9V6C9.00099 4.93944 9.42274 3.9226 10.1727 3.17267C10.9226 2.42274 11.9394 2.00099 13 2H17C18.0606 2.00099 19.0774 2.42274 19.8273 3.17267C20.5773 3.9226 20.999 4.93944 21 6V6.085C19.6028 6.32291 18.3347 7.04703 17.4198 8.1294C16.5049 9.21178 16.002 10.5827 16 12C16 12.2652 16.1054 12.5196 16.2929 12.7071C16.4804 12.8946 16.7348 13 17 13H27C27.2652 13 27.5196 12.8946 27.7071 12.7071C27.8946 12.5196 28 12.2652 28 12C27.998 10.5827 27.4951 9.21178 26.5802 8.1294C25.6653 7.04703 24.3972 6.32291 23 6.085V6C22.9983 4.40922 22.3656 2.88408 21.2408 1.75922C20.1159 0.63437 18.5908 0.00168752 17 0H13C11.4092 0.00168752 9.88408 0.63437 8.75922 1.75922C7.63437 2.88408 7.00169 4.40922 7 6V23H6C5.73478 23 5.48043 23.1054 5.29289 23.2929C5.10536 23.4804 5 23.7348 5 24V26H1C0.734784 26 0.48043 26.1054 0.292893 26.2929C0.105357 26.4804 0 26.7348 0 27V30C0 30.2652 0.105357 30.5196 0.292893 30.7071C0.48043 30.8946 0.734784 31 1 31H4V43C4.00197 44.4173 4.50486 45.7882 5.41981 46.8706C6.33475 47.953 7.60284 48.6771 9 48.915V51C9 51.2652 9.10536 51.5196 9.29289 51.7071C9.48043 51.8946 9.73478 52 10 52C10.2652 52 10.5196 51.8946 10.7071 51.7071C10.8946 51.5196 11 51.2652 11 51V49H51V51C51 51.2652 51.1054 51.5196 51.2929 51.7071C51.4804 51.8946 51.7348 52 52 52C52.2652 52 52.5196 51.8946 52.7071 51.7071C52.8946 51.5196 53 51.2652 53 51V48.915C54.3972 48.6771 55.6653 47.953 56.5802 46.8706C57.4951 45.7882 57.998 44.4173 58 43V31H61C61.2652 31 61.5196 30.8946 61.7071 30.7071C61.8946 30.5196 62 30.2652 62 30V27C62 26.7348 61.8946 26.4804 61.7071 26.2929C61.5196 26.1054 61.2652 26 61 26ZM22 8C22.8866 8.00107 23.7478 8.29614 24.4488 8.839C25.1497 9.38186 25.6509 10.1419 25.8738 11H18.1262C18.3491 10.1419 18.8503 9.38186 19.5512 8.839C20.2522 8.29614 21.1134 8.00107 22 8ZM7 25H9V26H7V25ZM56 43C55.999 44.0606 55.5773 45.0774 54.8273 45.8273C54.0774 46.5773 53.0606 46.999 52 47H10C8.93944 46.999 7.9226 46.5773 7.17267 45.8273C6.42274 45.0774 6.00099 44.0606 6 43V31H56V43ZM60 29H2V28H60V29Z" fill="#E9672B"/>
<path d="M9 35H17C17.2652 35 17.5196 34.8946 17.7071 34.7071C17.8946 34.5196 18 34.2652 18 34C18 33.7348 17.8946 33.4804 17.7071 33.2929C17.5196 33.1054 17.2652 33 17 33H9C8.73478 33 8.48043 33.1054 8.29289 33.2929C8.10536 33.4804 8 33.7348 8 34C8 34.2652 8.10536 34.5196 8.29289 34.7071C8.48043 34.8946 8.73478 35 9 35Z" fill="#E9672B"/>
<path d="M20 35H21C21.2652 35 21.5196 34.8946 21.7071 34.7071C21.8946 34.5196 22 34.2652 22 34C22 33.7348 21.8946 33.4804 21.7071 33.2929C21.5196 33.1054 21.2652 33 21 33H20C19.7348 33 19.4804 33.1054 19.2929 33.2929C19.1054 33.4804 19 33.7348 19 34C19 34.2652 19.1054 34.5196 19.2929 34.7071C19.4804 34.8946 19.7348 35 20 35Z" fill="#E9672B"/>
</svg>
