<svg width="54" height="64" viewBox="0 0 54 64" fill="none" xmlns="http://www.w3.org/2000/svg">
<path d="M14.9104 0.000366211C14.3925 0.000366211 13.9729 0.420116 13.9729 0.937866V14.0632H11.4948V0.937866C11.4948 0.420116 11.0752 0.000366211 10.5573 0.000366211C10.0394 0.000366211 9.61979 0.420116 9.61979 0.937866V14.0632H7.19691V0.937866C7.19691 0.420116 6.77729 0.000366211 6.25941 0.000366211C5.74154 0.000366211 5.32191 0.420116 5.32191 0.937866V14.0632H2.83891V0.937866C2.83891 0.420116 2.41929 0.000366211 1.90141 0.000366211C1.38354 0.000366211 0.963913 0.420116 0.963913 0.937866V20.2389C0.963913 22.2329 2.03841 24.0879 3.76791 25.08L5.32191 25.9715V31.7212C4.69579 32.4532 4.34341 33.3956 4.34341 34.3651V35.325C4.34341 35.9066 4.54491 36.442 4.88154 36.8651C4.54479 37.2882 4.34341 37.8236 4.34341 38.4052V53.071C4.34341 53.5887 4.76304 54.0085 5.28091 54.0085C5.79879 54.0085 6.21841 53.5887 6.21841 53.071V38.4051C6.21841 38.0729 6.48879 37.8025 6.82104 37.8025H9.99079C10.323 37.8025 10.5933 38.0729 10.5933 38.4051V59.9074C10.5933 61.1135 9.61191 62.0949 8.40579 62.0949C7.19966 62.0949 6.21829 61.1135 6.21829 59.9074V57.436C6.21829 56.9182 5.79866 56.4985 5.28079 56.4985C4.76291 56.4985 4.34329 56.9182 4.34329 57.436V59.9074C4.34329 62.1474 6.16566 63.9699 8.40579 63.9699C10.6459 63.9699 12.4683 62.1474 12.4683 59.9074V38.4051C12.4683 37.8235 12.2668 37.2881 11.9302 36.865C12.2669 36.4419 12.4683 35.9065 12.4683 35.3249V34.365C12.4683 33.3982 12.1175 32.4579 11.4947 31.7267V25.9711L13.0462 25.0801C14.7742 24.0876 15.8477 22.2331 15.8477 20.2404L15.8479 0.937866C15.8479 0.420116 15.4282 0.000366211 14.9104 0.000366211V0.000366211ZM13.9728 20.2404C13.9728 21.5636 13.2599 22.7951 12.1124 23.4541L10.0903 24.6155C9.79916 24.7827 9.61966 25.0927 9.61966 25.4285V32.0984C9.61966 32.3555 9.72529 32.6012 9.91166 32.7782C10.3513 33.1956 10.5933 33.7591 10.5933 34.365V35.3249C10.5933 35.6571 10.323 35.9275 9.99079 35.9275H6.82104C6.48879 35.9275 6.21841 35.6571 6.21841 35.3249V34.365C6.21841 33.7575 6.46166 33.1929 6.90341 32.7751C7.09079 32.598 7.19691 32.3516 7.19691 32.0939V25.4285C7.19691 25.0926 7.01716 24.7825 6.72591 24.6154L4.70091 23.4536C3.55241 22.7949 2.83891 21.563 2.83891 20.239V15.9384H13.9727V20.2404H13.9728Z" fill="#E9672B"/>
<path d="M32.8437 15.7176C32.8437 17.6251 32.4251 19.1102 31.6651 19.8993C30.9401 20.6521 29.8325 20.8102 29.031 20.8102C28.2295 20.8102 27.1218 20.6522 26.3968 19.8992C25.637 19.1102 25.2183 17.6252 25.2183 15.7176C25.2183 15.1998 24.7987 14.7801 24.2808 14.7801C23.763 14.7801 23.3433 15.1998 23.3433 15.7176C23.3433 18.1475 23.9322 20.0432 25.0463 21.1998C26.2283 22.4275 27.8657 22.6851 29.031 22.6851C30.1962 22.6851 31.8335 22.4273 33.0157 21.2C34.1298 20.0431 34.7187 18.1473 34.7187 15.7176C34.7187 15.1998 34.2991 14.7801 33.7812 14.7801C33.2633 14.7801 32.8437 15.1998 32.8437 15.7176Z" fill="#E9672B"/>
<path d="M29.0311 0C26.4831 0 24.0556 1.896 22.1956 5.33862C20.5661 8.35487 19.5933 12.2349 19.5933 15.7176C19.5933 21.0527 21.897 24.7521 25.947 25.992V31.7209C25.321 32.4529 24.9686 33.3952 24.9686 34.3646V35.3245C24.9686 35.906 25.17 36.4414 25.5067 36.8645C25.17 37.2876 24.9685 37.823 24.9685 38.4046V59.9069C24.9685 62.1469 26.791 63.9694 29.0311 63.9694C31.2711 63.9694 33.0935 62.1469 33.0935 59.9069V46.0179C33.0935 45.5001 32.6738 45.0804 32.156 45.0804C31.6381 45.0804 31.2185 45.5001 31.2185 46.0179V59.907C31.2185 61.1131 30.2371 62.0945 29.031 62.0945C27.8248 62.0945 26.8435 61.1131 26.8435 59.907V38.4048C26.8435 38.0725 27.1138 37.8021 27.4461 37.8021H30.6158C30.9481 37.8021 31.2183 38.0725 31.2183 38.4048V41.6953C31.2183 42.213 31.638 42.6328 32.1558 42.6328C32.6737 42.6328 33.0933 42.213 33.0933 41.6953V38.4048C33.0933 37.8232 32.892 37.2879 32.5552 36.8647C32.892 36.4416 33.0935 35.9062 33.0935 35.3246V34.3647C33.0935 33.398 32.7427 32.4577 32.1197 31.7265V25.9906C36.1666 24.7494 38.4685 21.0505 38.4685 15.7177C38.4685 12.235 37.4957 8.355 35.8662 5.33875C34.0063 1.896 31.579 0 29.0311 0V0ZM30.9781 24.3542C30.5495 24.45 30.2448 24.8303 30.2448 25.2693V32.0981C30.2448 32.3553 30.3505 32.601 30.5368 32.778C30.9766 33.1954 31.2186 33.7589 31.2186 34.3647V35.3246C31.2186 35.6569 30.9482 35.9272 30.616 35.9272H27.4462C27.114 35.9272 26.8437 35.6569 26.8437 35.3246V34.3647C26.8437 33.7573 27.087 33.1926 27.5287 32.7747C27.716 32.5976 27.8221 32.3512 27.8221 32.0936V25.2704C27.8221 24.8311 27.5172 24.4508 27.0885 24.3552C23.4643 23.5481 21.4685 20.4806 21.4685 15.7177C21.4685 12.5317 22.357 8.985 23.8455 6.23C25.3405 3.46225 27.2306 1.875 29.0311 1.875C30.8316 1.875 32.7215 3.46225 34.2166 6.22988C35.705 8.98487 36.5936 12.5317 36.5936 15.7176C36.5936 20.4785 34.5992 23.5457 30.9781 24.3542Z" fill="#E9672B"/>
<path d="M53.0056 39.3646C53.0056 38.3977 52.6549 37.4575 52.0319 36.7264V13.4366C52.0319 12.9189 51.6122 12.4991 51.0944 12.4991C50.5765 12.4991 50.1569 12.9189 50.1569 13.4366V37.098C50.1569 37.3551 50.2625 37.6009 50.449 37.7779C50.8886 38.1951 51.1306 38.7586 51.1306 39.3645V40.3244C51.1306 40.6566 50.8604 40.927 50.5281 40.927H47.3584C47.0261 40.927 46.7558 40.6566 46.7558 40.3244V39.3645C46.7558 38.757 46.999 38.1924 47.4407 37.7746C47.6281 37.5975 47.7342 37.3511 47.7342 37.0934V32.6769C47.7342 32.1591 47.3146 31.7394 46.7967 31.7394H44.6028V9.72124C44.6028 6.19561 46.8808 3.15924 50.157 2.12486V9.15449C50.157 9.67224 50.5766 10.092 51.0945 10.092C51.6124 10.092 52.032 9.67224 52.032 9.15449V0.937489C52.032 0.661614 51.9105 0.399864 51.7 0.221614C51.4892 0.0434888 51.2107 -0.0328862 50.939 0.0129888C46.1811 0.813489 42.7279 4.89636 42.7279 9.72124V32.6771C42.7279 33.1949 43.1475 33.6146 43.6654 33.6146H45.8594V36.7209C45.2332 37.4529 44.8809 38.3952 44.8809 39.3647V40.3246C44.8809 40.9062 45.0824 41.4416 45.419 41.8647C45.0823 42.2879 44.8809 42.8232 44.8809 43.4049V59.9071C44.8809 62.1471 46.7032 63.9696 48.9434 63.9696C51.1835 63.9696 53.0059 62.1471 53.0059 59.9071V43.4047C53.0059 42.8231 52.8044 42.2877 52.4677 41.8646C52.8045 41.4415 53.0059 40.9061 53.0059 40.3245V39.3646H53.0056ZM51.1306 59.907C51.1306 61.1131 50.1492 62.0945 48.9431 62.0945C47.737 62.0945 46.7556 61.1131 46.7556 59.907V43.4047C46.7556 43.0725 47.0259 42.8021 47.3581 42.8021H50.528C50.8602 42.8021 51.1305 43.0725 51.1305 43.4047V59.907H51.1306Z" fill="#E9672B"/>
</svg>
