<svg width="64" height="64" viewBox="0 0 64 64" fill="none" xmlns="http://www.w3.org/2000/svg">
<path d="M60.8011 37.3342H57.601V26.6681C57.5976 23.7238 55.212 21.3382 52.2677 21.3347H35.2019C32.2576 21.3382 29.872 23.7238 29.8685 26.6681V37.3342H26.6684C24.9024 37.3362 23.4708 38.7678 23.4688 40.5343V51.2005C23.4771 54.0075 25.6626 56.3258 28.4643 56.4996L26.9306 61.8666H16.9612C16.451 59.3857 14.2689 57.6036 11.7358 57.6002H9.60259V8.49239C9.60406 5.15607 12.1831 2.3881 15.5111 2.15178C18.8391 1.91546 21.7838 4.29087 22.257 7.59349L22.2755 7.72288C20.8991 8.28976 20.0998 9.73503 20.3518 11.2018L20.6428 12.9239L17.7908 17.8217C17.4075 18.4803 17.4046 19.2933 17.7825 19.9549C18.1609 20.6165 18.8635 21.0262 19.6257 21.0296C19.7478 21.0296 19.8698 21.0193 19.99 20.9988L30.223 19.2694C31.0389 19.1312 31.7015 18.5336 31.9232 17.7362C32.1443 16.9389 31.8846 16.0854 31.2562 15.5468L26.9531 11.858L26.6621 10.1359C26.4556 8.93525 25.5835 7.95676 24.4146 7.61351L24.3687 7.29175C23.7384 2.87978 19.8049 -0.294432 15.3597 0.0214761C10.9146 0.337384 7.46936 4.03599 7.46936 8.49239V57.6002H5.33613V56.5338C5.33613 55.9445 4.85861 55.4669 4.26927 55.4669C3.68042 55.4669 3.2029 55.9445 3.2029 56.5338V58.0523C1.26204 58.9004 0.00671374 60.8154 0.00280762 62.9335C0.00280762 63.5223 0.480331 63.9999 1.06967 63.9999H62.9344C63.5232 63.9999 64.0007 63.5223 64.0007 62.9335C64.0007 62.3441 63.5232 61.8666 62.9344 61.8666H60.5389L59.0053 56.4996C61.807 56.3258 63.9924 54.0075 64.0007 51.2005V40.5343C63.9988 38.7678 62.5672 37.3362 60.8011 37.3342ZM29.8676 17.1659L19.6345 18.8959L22.4293 14.0962L25.6514 13.5518L29.8754 17.164L29.8676 17.1659ZM24.7369 11.5426L22.6334 11.898L22.4552 10.8463C22.358 10.2658 22.7487 9.71598 23.3292 9.61687C23.3883 9.6071 23.4478 9.60222 23.5079 9.60222C24.0279 9.60319 24.4717 9.97818 24.5596 10.4909L24.7369 11.5426ZM35.2019 23.468H52.2677C54.0343 23.4699 55.4659 24.9015 55.4678 26.6681V37.531C54.1929 37.9797 53.3385 39.1823 53.3346 40.5343V42.6949C52.4166 41.9893 51.2922 41.6046 50.1345 41.6007H46.3099L48.7556 39.155C49.1594 38.7365 49.154 38.071 48.7424 37.6599C48.3308 37.2483 47.6658 37.2424 47.2474 37.6467L44.8016 40.0924V35.201C44.8016 34.6117 44.3236 34.1341 43.7348 34.1341C43.1459 34.1341 42.6679 34.6117 42.6679 35.201V40.0924L40.2222 37.6467C39.8038 37.2424 39.1387 37.2483 38.7271 37.6599C38.3155 38.071 38.3102 38.7365 38.714 39.155L41.1597 41.6007H37.3351C36.1774 41.6046 35.0529 41.9893 34.135 42.6949V40.5343C34.1311 39.1823 33.2766 37.9797 32.0018 37.531V26.6681C32.0037 24.9015 33.4353 23.4699 35.2019 23.468ZM50.1345 43.7339C51.901 43.7359 53.3326 45.1675 53.3346 46.934V48.0004H34.135V46.934C34.137 45.1675 35.5685 43.7359 37.3351 43.7339H50.1345ZM51.6491 56.5338L54.6968 61.8666H32.7732L35.8205 56.5338H51.6491ZM53.3346 54.4001H34.135V50.1336H53.3346V54.4001ZM25.6021 51.2005V40.5343C25.6026 39.9455 26.0801 39.4684 26.6684 39.4675H30.9354C31.5238 39.4684 32.0013 39.9455 32.0018 40.5343V54.4001H28.8022C27.0356 54.3981 25.604 52.967 25.6021 51.2005ZM2.31914 61.8666C2.77225 60.5893 3.98022 59.7349 5.33613 59.7334H11.7358C13.0912 59.7349 14.2997 60.5893 14.7528 61.8666H2.31914ZM29.1493 61.8666L30.6732 56.5338H33.364L30.3168 61.8666H29.1493ZM57.1528 61.8666L54.1055 56.5338H56.7964L58.3202 61.8666H57.1528ZM61.8675 51.2005C61.8655 52.967 60.4339 54.3981 58.6674 54.4001H55.4678V40.5343C55.4683 39.9455 55.9458 39.4684 56.5342 39.4675H60.8011C61.3895 39.4684 61.8665 39.9455 61.8675 40.5343V51.2005Z" fill="#E9672B"/>
</svg>
